<svg xmlns="http://www.w3.org/2000/svg" width="36.41" height="42" viewBox="0 0 36.41 42">
  <g id="Books_badge" data-name="Books badge" transform="translate(-154.999 -1298)">
    <g id="Group_27" data-name="Group 27" transform="translate(6 -1)">
      <g id="Group_5" data-name="Group 5" transform="translate(148.999 1306.957)">
        <path id="Path_7" data-name="Path 7" d="M156.659,1306.957h36.41v8.777h-36.41Z" transform="translate(-156.659 -1306.957)" fill="#ffda45"/>
      </g>
      <path id="Path_8" data-name="Path 8" d="M189.013,1306.957h4.056v8.777h-4.056Z" transform="translate(-18.465)" fill="#fac800"/>
      <path id="Path_9" data-name="Path 9" d="M177.505,1306.957h11.508v8.777H177.505Z" transform="translate(-14.667)" fill="#fff5f5"/>
      <g id="Group_26" data-name="Group 26" transform="translate(155.204 1299)">
        <g id="Group_24" data-name="Group 24">
          <g id="Group_10" data-name="Group 10" transform="translate(3.198 31.5)">
            <path id="Path_10" data-name="Path 10" d="M176.616,1340.426H161.233c-1.135,0-2.119-1.689-2.278-3.993-.2-2.886.888-5.359,2.257-5.359h15.4Z" transform="translate(-158.402 -1330.5)" fill="#f0f5fa"/>
            <path id="Path_11" data-name="Path 11" d="M196.843,1331.074h3.773v9.352h-3.773Z" transform="translate(-182.403 -1330.5)" fill="#e4ecf2"/>
            <g id="Group_6" data-name="Group 6">
              <path id="Path_12" data-name="Path 12" d="M178.875,1341H161.25c-1.54,0-2.825-2.29-2.848-5.173-.023-2.93,1.243-5.327,2.8-5.327h17.657c.168,0,.319.226.339.539.024.374-.131.691-.326.691H161.244c-1.176,0-2.162,1.743-2.184,3.946-.022,2.25.949,4.094,2.146,4.094h17.657c.168,0,.319.226.339.539C179.226,1340.682,179.07,1341,178.875,1341Z" transform="translate(-158.402 -1330.5)" fill="#6e9eff"/>
            </g>
            <g id="Group_9" data-name="Group 9" transform="translate(-4.522 3.035)">
              <g id="Group_7" data-name="Group 7">
                <path id="Path_13" data-name="Path 13" d="M200.616,1334.766H171.505a.7.7,0,0,1-.73-.539.653.653,0,0,1,.7-.692h29.139Z" transform="translate(-170.77 -1333.535)" fill="#c5d7e6"/>
              </g>
              <g id="Group_8" data-name="Group 8" transform="translate(7.737 3.117)">
                <path id="Path_14" data-name="Path 14" d="M200.616,1337.883H179.242a.7.7,0,0,1-.73-.539.653.653,0,0,1,.7-.692h21.4Z" transform="translate(-178.507 -1336.652)" fill="#c5d7e6"/>
              </g>
            </g>
          </g>
          <g id="Group_14" data-name="Group 14" transform="translate(0 24.199)">
            <path id="Path_15" data-name="Path 15" d="M170.579,1329.844H157.5c-.724,0-1.332-1.375-1.317-3.055.014-1.626.586-2.934,1.291-2.934h13.108v5.989Z" transform="translate(-155.204 -1323.199)" fill="#f0f5fa"/>
            <path id="Path_16" data-name="Path 16" d="M190.806,1323.855h3.773v5.989h-3.773Z" transform="translate(-179.204 -1323.199)" fill="#e4ecf2"/>
            <g id="Group_11" data-name="Group 11">
              <path id="Path_17" data-name="Path 17" d="M173.117,1330.418H157.033c-1.043,0-1.886-1.721-1.826-3.821.055-1.892.836-3.4,1.788-3.4H173.1c.156,0,.3.226.315.539.022.374-.122.692-.3.692H157.022c-.643,0-1.188,1.014-1.207,2.31-.019,1.343.517,2.448,1.18,2.448H173.1c.156,0,.3.226.315.539C173.442,1330.1,173.3,1330.418,173.117,1330.418Z" transform="translate(-155.204 -1323.199)" fill="#74d84b"/>
            </g>
            <g id="Group_13" data-name="Group 13" transform="translate(4.732 3.117)">
              <g id="Group_12" data-name="Group 12">
                <path id="Path_18" data-name="Path 18" d="M194.579,1327.547h-9.907a.7.7,0,0,1-.73-.539.654.654,0,0,1,.7-.692h9.934Z" transform="translate(-183.937 -1326.316)" fill="#c5d7e6"/>
              </g>
            </g>
          </g>
          <g id="Group_16" data-name="Group 16" transform="translate(-5.96)">
            <path id="Path_19" data-name="Path 19" d="M167.6,1299.574h28.325a3.911,3.911,0,0,1,3.874,2.87c.34,2.077-1.5,3.857-3.827,3.857H167.6Z" transform="translate(-164.506 -1299)" fill="#f0f5fa"/>
            <path id="Path_20" data-name="Path 20" d="M195.859,1299.574h-3.8a3.4,3.4,0,1,1,0,6.727h3.75a3.912,3.912,0,0,0,3.875-2.87c.339-2.077-1.505-3.857-3.827-3.857Z" transform="translate(-164.506 -1299)" fill="#e4ecf2"/>
            <g id="Group_15" data-name="Group 15">
              <path id="Path_21" data-name="Path 21" d="M195.85,1306.957H165.241a.7.7,0,0,1-.73-.539.652.652,0,0,1,.7-.691h30.6a3.243,3.243,0,0,0,3.137-2.224,2.892,2.892,0,0,0-3.1-3.273H165.241a.7.7,0,0,1-.73-.539.653.653,0,0,1,.7-.691H195.8a4.471,4.471,0,0,1,4.562,3.315c.464,2.486-1.74,4.642-4.513,4.642Z" transform="translate(-164.506 -1299)" fill="#fc435f"/>
            </g>
          </g>
          <g id="Group_19" data-name="Group 19" transform="translate(5.511 16.734)">
            <g id="Group_17" data-name="Group 17">
              <path id="Path_22" data-name="Path 22" d="M160.715,1315.734h18.164v7.465H160.715Z" transform="translate(-160.715 -1315.734)" fill="#6e9eff"/>
            </g>
            <path id="Path_23" data-name="Path 23" d="M190.051,1315.734h12.828v7.465H190.051Z" transform="translate(-184.715 -1315.734)" fill="#bf6930"/>
            <path id="Path_24" data-name="Path 24" d="M199.106,1315.734h3.773v7.465h-3.773Z" transform="translate(-184.715 -1315.734)" fill="#ad5f2c"/>
            <path id="Path_25" data-name="Path 25" d="M175.215,1320.738h-9.583a1.39,1.39,0,0,1-1.446-1.092,1.31,1.31,0,0,1,1.407-1.369h9.583a1.39,1.39,0,0,1,1.445,1.093A1.308,1.308,0,0,1,175.215,1320.738Z" transform="translate(-160.715 -1315.734)" fill="#fff5f5"/>
            <g id="Group_18" data-name="Group 18" transform="translate(8.731 3.118)">
              <path id="Path_26" data-name="Path 26" d="M198.76,1320.082h-4.578a.7.7,0,0,1-.73-.539.653.653,0,0,1,.7-.691h4.579a.7.7,0,0,1,.73.539A.654.654,0,0,1,198.76,1320.082Z" transform="translate(-193.447 -1318.852)" fill="#fff5f5"/>
            </g>
          </g>
          <g id="Group_23" data-name="Group 23" transform="translate(10.403 10.957)">
            <g id="Group_20" data-name="Group 20" transform="translate(5.188)">
              <path id="Path_27" data-name="Path 27" d="M185.146,1312.079V1310.6a.664.664,0,0,1,.62-.634.678.678,0,0,1,.795.61v1.531a.68.68,0,0,1-.795.611A.666.666,0,0,1,185.146,1312.079Z" transform="translate(-185.146 -1309.957)" fill="#677a8f"/>
            </g>
            <g id="Group_21" data-name="Group 21" transform="translate(2.641)">
              <path id="Path_28" data-name="Path 28" d="M182.6,1312.079V1310.6a.664.664,0,0,1,.62-.634.678.678,0,0,1,.8.61v1.531a.68.68,0,0,1-.8.611A.666.666,0,0,1,182.6,1312.079Z" transform="translate(-182.599 -1309.957)" fill="#677a8f"/>
            </g>
            <g id="Group_22" data-name="Group 22">
              <path id="Path_29" data-name="Path 29" d="M179.958,1312.079V1310.6a.664.664,0,0,1,.62-.634.678.678,0,0,1,.795.61v1.531a.679.679,0,0,1-.795.611A.666.666,0,0,1,179.958,1312.079Z" transform="translate(-179.958 -1309.957)" fill="#677a8f"/>
            </g>
          </g>
        </g>
        <g id="Group_25" data-name="Group 25" transform="translate(2.845 3.363)">
          <path id="Path_30" data-name="Path 30" d="M167.6,1302.363h16.115a.7.7,0,0,1,.73.539.653.653,0,0,1-.7.692H167.6Z" transform="translate(-167.601 -1302.363)" fill="#c5d7e6"/>
        </g>
      </g>
    </g>
  </g>
</svg>
